<svg width="30" height="16" viewBox="0 0 30 16" fill="none" xmlns="http://www.w3.org/2000/svg">
<path d="M28.9995 6.94488H3.426L8.698 1.70988C9.09 1.32088 9.092 0.687383 8.703 0.295383C8.3145 -0.0961173 7.6805 -0.0991174 7.289 0.290383L0.295 7.23538C0.295 7.23538 0.294 7.23638 0.2935 7.23738C0.2475 7.28338 0.206 7.33338 0.17 7.38738C0.162 7.39938 0.157 7.41338 0.1495 7.42538C0.123 7.46888 0.097 7.51238 0.0775 7.55988C0.072 7.57338 0.0695001 7.58788 0.0645001 7.60138C0.0470001 7.64888 0.03 7.69688 0.02 7.74738C0.00699998 7.81188 0 7.87788 0 7.94488C0 7.95538 0.00300002 7.96538 0.00300002 7.97588C0.00450002 8.03238 0.00899998 8.08838 0.02 8.14288C0.0275 8.17988 0.041 8.21388 0.0525 8.24888C0.061 8.27588 0.0665 8.30388 0.0775 8.32988C0.094 8.36988 0.1165 8.40638 0.1385 8.44388C0.1495 8.46288 0.1575 8.48338 0.17 8.50188C0.2065 8.55588 0.2475 8.60638 0.2935 8.65188C0.2935 8.65188 0.2935 8.65238 0.2945 8.65288L7.2675 15.6034C7.463 15.7979 7.718 15.8949 7.9735 15.8949C8.229 15.8949 8.486 15.7969 8.6815 15.6009C9.0715 15.2094 9.0705 14.5764 8.6795 14.1864L3.42 8.94388H29.0005C29.5525 8.94388 30.0005 8.49588 30.0005 7.94388C30.0005 7.39188 29.5525 6.94388 29.0005 6.94388L28.9995 6.94488Z" fill="#FCFCFC"/>
</svg>
