<svg width="68" height="45" viewBox="0 0 68 45" fill="none" xmlns="http://www.w3.org/2000/svg">
<path d="M62.3333 14.0625V8.4375H56.6667V14.0625H51V19.6875H56.6667V25.3125H62.3333V19.6875H68V14.0625H62.3333Z" fill="#838181"/>
<path d="M22.6667 22.5C28.9283 22.5 34 17.4656 34 11.25C34 5.03437 28.9283 0 22.6667 0C16.405 0 11.3333 5.03437 11.3333 11.25C11.3333 17.4656 16.405 22.5 22.6667 22.5ZM22.6667 5.625C25.7833 5.625 28.3333 8.15625 28.3333 11.25C28.3333 14.3438 25.7833 16.875 22.6667 16.875C19.55 16.875 17 14.3438 17 11.25C17 8.15625 19.55 5.625 22.6667 5.625Z" fill="#838181"/>
<path d="M22.6667 25.3125C15.1017 25.3125 0 29.0812 0 36.5625V45H45.3333V36.5625C45.3333 29.0812 30.2317 25.3125 22.6667 25.3125ZM39.6667 39.375H5.66667V36.5906C6.23333 34.5656 15.0167 30.9375 22.6667 30.9375C30.3167 30.9375 39.1 34.5656 39.6667 36.5625V39.375Z" fill="#838181"/>
<path d="M35.445 0.140626C38.0517 3.12188 39.6667 7.00313 39.6667 11.25C39.6667 15.4969 38.0517 19.3781 35.445 22.3594C40.9983 21.6562 45.3333 16.9875 45.3333 11.25C45.3333 5.5125 40.9983 0.843751 35.445 0.140626Z" fill="#838181"/>
<path d="M46.835 27.6469C49.3567 29.9812 51 32.9062 51 36.5625V45H56.6667V36.5625C56.6667 32.4844 52.1617 29.5031 46.835 27.6469Z" fill="#838181"/>
</svg>
