<svg width="19" height="19" viewBox="0 0 19 19" fill="none" xmlns="http://www.w3.org/2000/svg">
<path d="M9.375 0C4.19719 0 0 4.19719 0 9.375C0 14.5528 4.19719 18.75 9.375 18.75C14.5528 18.75 18.75 14.5528 18.75 9.375C18.75 4.19719 14.5528 0 9.375 0ZM13.7816 7.32625L8.56281 12.3263C8.44187 12.4419 8.28625 12.5 8.13031 12.5C7.97906 12.5 7.82781 12.4453 7.70813 12.3359L4.97875 9.83656C4.72406 9.60344 4.70656 9.20812 4.93969 8.95344C5.17281 8.69906 5.56812 8.68125 5.82281 8.91437L8.12063 11.0181L12.9166 6.42313C13.1659 6.18438 13.5616 6.19312 13.8003 6.44219C14.0391 6.69156 14.0306 7.08719 13.7812 7.32594L13.7816 7.32625Z" fill="#4846D4"/>
</svg>
