<svg width="547" height="98" viewBox="0 0 547 98" fill="none" xmlns="http://www.w3.org/2000/svg">
<path d="M536.566 16.8355V46.2239C536.566 47.6633 536.925 48.7229 537.645 49.4026C538.405 50.0424 539.424 50.3622 540.704 50.3622C541.703 50.3622 542.583 50.2223 543.343 49.9424C544.103 49.6225 544.782 49.2027 545.382 48.6829L546.702 54.1407C545.742 54.9004 544.542 55.5002 543.103 55.94C541.664 56.3799 540.144 56.5998 538.545 56.5998C536.546 56.5998 534.766 56.2999 533.207 55.7001C531.687 55.1004 530.488 54.1407 529.608 52.8213C528.769 51.5018 528.349 49.7425 528.349 47.5433V19.1146L536.566 16.8355ZM546.162 26.0118V32.1294H522.831V26.0118H546.162Z" fill="#0D0C41"/>
<path d="M489.05 56V26.0118H496.427L496.907 35.0083L495.887 34.0487C496.367 32.0894 497.127 30.4701 498.167 29.1906C499.206 27.9111 500.466 26.9715 501.945 26.3717C503.464 25.7319 505.124 25.4121 506.923 25.4121C509.002 25.4121 510.842 25.8119 512.441 26.6116C514.08 27.4113 515.36 28.6308 516.279 30.2702C517.239 31.8695 517.719 33.8887 517.719 36.3278V56H509.502V38.6668C509.502 36.1079 509.002 34.3485 508.003 33.3889C507.003 32.3893 505.704 31.8895 504.104 31.8895C502.985 31.8895 501.885 32.1694 500.806 32.7292C499.766 33.249 498.906 34.1086 498.227 35.3082C497.587 36.5077 497.267 38.1071 497.267 40.1063V56H489.05Z" fill="#0D0C41"/>
<path d="M468.232 56.5998C465.074 56.5998 462.315 55.98 459.956 54.7405C457.636 53.501 455.837 51.7217 454.558 49.4026C453.278 47.0835 452.638 44.2846 452.638 41.0059C452.638 37.7272 453.278 34.9283 454.558 32.6092C455.837 30.2901 457.616 28.5108 459.896 27.2713C462.215 26.0318 464.854 25.4121 467.812 25.4121C470.851 25.4121 473.43 26.0318 475.549 27.2713C477.669 28.4709 479.288 30.1302 480.408 32.2494C481.527 34.3286 482.087 36.7076 482.087 39.3866C482.087 40.1862 482.067 40.9459 482.027 41.6657C481.987 42.3854 481.927 43.0251 481.847 43.5849H457.916V37.8872H478.248L474.29 39.3266C474.29 36.8076 473.71 34.8683 472.551 33.5089C471.431 32.1494 469.832 31.4697 467.752 31.4697C466.233 31.4697 464.914 31.8295 463.794 32.5493C462.714 33.269 461.895 34.3485 461.335 35.788C460.775 37.1874 460.495 38.9667 460.495 41.1259C460.495 43.245 460.795 45.0043 461.395 46.4038C462.035 47.7633 462.914 48.7829 464.034 49.4626C465.193 50.1423 466.573 50.4822 468.172 50.4822C469.932 50.4822 471.351 50.1423 472.431 49.4626C473.51 48.7829 474.35 47.8432 474.95 46.6437L481.487 49.1627C480.847 50.7221 479.868 52.0616 478.548 53.1811C477.269 54.3007 475.729 55.1603 473.93 55.7601C472.171 56.3199 470.271 56.5998 468.232 56.5998Z" fill="#0D0C41"/>
<path d="M449.05 18.8746L450.01 24.7523C449.85 24.7523 449.67 24.7523 449.47 24.7523C449.31 24.7123 449.13 24.6923 448.93 24.6923C447.091 24.6923 445.712 25.1122 444.792 25.9518C443.872 26.7515 443.412 27.8711 443.412 29.3105L440.054 27.9311C440.054 26.3317 440.374 24.8523 441.013 23.4928C441.653 22.0934 442.593 20.9738 443.832 20.1341C445.112 19.2945 446.631 18.8746 448.39 18.8746C448.47 18.8746 448.57 18.8746 448.69 18.8746C448.81 18.8746 448.93 18.8746 449.05 18.8746ZM439.214 50.3622C442.453 50.3622 444.952 51.0619 446.711 52.4614C448.47 53.8608 449.35 55.8201 449.35 58.3391C449.35 60.6182 448.69 62.5374 447.371 64.0968C446.051 65.6962 444.192 66.8957 441.793 67.6954C439.434 68.4951 436.695 68.8949 433.576 68.8949C428.418 68.8949 424.64 68.1752 422.241 66.7358C419.882 65.2963 418.702 63.4171 418.702 61.098C418.702 59.4586 419.322 58.0792 420.561 56.9596C421.841 55.8401 423.94 55.2203 426.859 55.1003L426.559 56.06C424.48 55.7001 422.881 55.0204 421.761 54.0208C420.681 52.9812 420.142 51.5617 420.142 49.7625C420.142 47.9232 420.841 46.4238 422.241 45.2642C423.68 44.0647 425.619 43.365 428.058 43.1651L431.657 44.8444H430.817C429.098 44.9644 427.879 45.3242 427.159 45.924C426.479 46.4837 426.139 47.1235 426.139 47.8432C426.139 48.6829 426.459 49.3226 427.099 49.7625C427.779 50.1623 428.738 50.3622 429.978 50.3622H439.214ZM433.636 63.2571C435.715 63.2571 437.415 63.0772 438.734 62.7173C440.094 62.3575 441.093 61.8977 441.733 61.3379C442.413 60.7781 442.753 60.1584 442.753 59.4786C442.753 58.7189 442.453 58.0992 441.853 57.6194C441.253 57.1795 440.174 56.9596 438.614 56.9596H428.478C427.519 56.9596 426.719 57.1995 426.079 57.6793C425.479 58.1591 425.18 58.8189 425.18 59.6586C425.18 60.7781 425.919 61.6578 427.399 62.2975C428.918 62.9373 430.997 63.2571 433.636 63.2571ZM433.696 25.4121C436.495 25.4121 438.914 25.8319 440.953 26.6716C443.033 27.4713 444.612 28.6308 445.691 30.1502C446.811 31.6696 447.371 33.4889 447.371 35.608C447.371 37.6872 446.811 39.4865 445.691 41.0059C444.612 42.5253 443.033 43.7048 440.953 44.5445C438.914 45.3442 436.495 45.744 433.696 45.744C429.258 45.744 425.859 44.8444 423.5 43.0451C421.181 41.2058 420.022 38.7268 420.022 35.608C420.022 33.4889 420.561 31.6696 421.641 30.1502C422.761 28.6308 424.34 27.4713 426.379 26.6716C428.418 25.8319 430.857 25.4121 433.696 25.4121ZM433.696 30.57C432.097 30.57 430.777 31.0099 429.738 31.8895C428.698 32.7692 428.178 33.9887 428.178 35.5481C428.178 37.1075 428.698 38.347 429.738 39.2666C430.777 40.1463 432.097 40.5861 433.696 40.5861C435.296 40.5861 436.595 40.1463 437.595 39.2666C438.634 38.347 439.154 37.1075 439.154 35.5481C439.154 33.9887 438.634 32.7692 437.595 31.8895C436.595 31.0099 435.296 30.57 433.696 30.57Z" fill="#0D0C41"/>
<path d="M416.369 56H407.793L404.494 46.3438H389.32L386.021 56H377.565L392.019 16.4156H401.915L416.369 56ZM391.179 40.2262H402.635L396.877 22.953L391.179 40.2262Z" fill="#0D0C41"/>
<path d="M361.472 56.5998C358.433 56.5998 355.654 56.06 353.135 54.9804C350.656 53.9008 348.637 52.3814 347.077 50.4222L351.815 45.6241C352.775 47.0635 354.055 48.2431 355.654 49.1627C357.253 50.0823 359.153 50.5422 361.352 50.5422C362.911 50.5422 364.151 50.3222 365.07 49.8824C366.03 49.4026 366.51 48.6629 366.51 47.6633C366.51 47.0235 366.29 46.4838 365.85 46.0439C365.41 45.5641 364.53 45.1843 363.211 44.9044L357.933 43.8248C354.454 43.1051 351.975 42.0255 350.496 40.5861C349.056 39.1067 348.337 37.2074 348.337 34.8883C348.337 33.249 348.817 31.7096 349.776 30.2702C350.776 28.8307 352.255 27.6712 354.214 26.7915C356.174 25.8719 358.613 25.4121 361.532 25.4121C364.53 25.4121 367.129 25.8919 369.328 26.8515C371.568 27.7711 373.327 29.1506 374.606 30.9899L369.688 35.788C368.809 34.3885 367.649 33.3289 366.21 32.6092C364.81 31.8495 363.331 31.4697 361.771 31.4697C360.652 31.4697 359.692 31.5896 358.893 31.8295C358.093 32.0694 357.493 32.4093 357.093 32.8491C356.693 33.249 356.494 33.7688 356.494 34.4085C356.494 35.0483 356.773 35.6081 357.333 36.0879C357.893 36.5277 358.913 36.9075 360.392 37.2274L366.51 38.4869C369.468 39.0867 371.588 40.1063 372.867 41.5457C374.147 42.9452 374.786 44.6445 374.786 46.6437C374.786 48.5629 374.267 50.2823 373.227 51.8017C372.227 53.2811 370.728 54.4606 368.729 55.3403C366.769 56.1799 364.35 56.5998 361.472 56.5998Z" fill="#0D0C41"/>
<path d="M324.994 56V26.0118H332.131L332.671 31.8895C333.47 29.8103 334.63 28.211 336.149 27.0914C337.709 25.9719 339.648 25.4121 341.967 25.4121C342.647 25.4121 343.267 25.472 343.826 25.592C344.386 25.712 344.846 25.8719 345.206 26.0718L344.246 32.9691C343.846 32.8092 343.347 32.6892 342.747 32.6092C342.187 32.5293 341.447 32.4893 340.528 32.4893C339.328 32.4893 338.169 32.7892 337.049 33.3889C335.929 33.9487 335.01 34.8284 334.29 36.0279C333.57 37.1874 333.211 38.6668 333.211 40.4661V56H324.994Z" fill="#0D0C41"/>
<path d="M304.176 56.5998C301.017 56.5998 298.258 55.98 295.899 54.7405C293.58 53.501 291.781 51.7217 290.501 49.4026C289.222 47.0835 288.582 44.2846 288.582 41.0059C288.582 37.7272 289.222 34.9283 290.501 32.6092C291.781 30.2901 293.56 28.5108 295.839 27.2713C298.158 26.0318 300.797 25.4121 303.756 25.4121C306.795 25.4121 309.374 26.0318 311.493 27.2713C313.612 28.4709 315.232 30.1302 316.351 32.2494C317.471 34.3286 318.031 36.7076 318.031 39.3866C318.031 40.1862 318.011 40.9459 317.971 41.6657C317.931 42.3854 317.871 43.0251 317.791 43.5849H293.86V37.8872H314.192L310.234 39.3266C310.234 36.8076 309.654 34.8683 308.494 33.5089C307.375 32.1494 305.775 31.4697 303.696 31.4697C302.177 31.4697 300.857 31.8295 299.738 32.5493C298.658 33.269 297.838 34.3485 297.279 35.788C296.719 37.1874 296.439 38.9667 296.439 41.1259C296.439 43.245 296.739 45.0043 297.339 46.4038C297.978 47.7633 298.858 48.7829 299.978 49.4626C301.137 50.1423 302.517 50.4822 304.116 50.4822C305.875 50.4822 307.295 50.1423 308.374 49.4626C309.454 48.7829 310.294 47.8432 310.893 46.6437L317.431 49.1627C316.791 50.7221 315.811 52.0616 314.492 53.1811C313.212 54.3007 311.673 55.1603 309.874 55.7601C308.114 56.3199 306.215 56.5998 304.176 56.5998Z" fill="#0D0C41"/>
<path d="M263.995 56.5998C261.516 56.5998 259.296 55.98 257.337 54.7405C255.418 53.501 253.899 51.7217 252.779 49.4026C251.699 47.0835 251.16 44.3046 251.16 41.0659C251.16 37.7472 251.739 34.9283 252.899 32.6092C254.059 30.2502 255.618 28.4709 257.577 27.2713C259.576 26.0318 261.815 25.4121 264.294 25.4121C266.933 25.4121 269.113 26.1718 270.832 27.6912C272.551 29.2106 273.671 31.1698 274.191 33.5688L273.411 34.5285V12.877H281.628V56H274.251L273.711 46.8836L274.73 47.3634C274.45 49.2427 273.811 50.882 272.811 52.2815C271.812 53.6409 270.552 54.7005 269.033 55.4602C267.513 56.2199 265.834 56.5998 263.995 56.5998ZM266.394 50.3022C267.833 50.3022 269.073 49.9424 270.112 49.2227C271.152 48.463 271.951 47.3634 272.511 45.924C273.111 44.4845 273.411 42.7652 273.411 40.766C273.411 38.8468 273.131 37.2274 272.571 35.9079C272.011 34.5485 271.212 33.5089 270.172 32.7892C269.133 32.0694 267.913 31.7096 266.514 31.7096C264.274 31.7096 262.515 32.5093 261.236 34.1086C259.996 35.668 259.376 37.9671 259.376 41.0059C259.376 44.0447 259.996 46.3638 261.236 47.9632C262.475 49.5225 264.195 50.3022 266.394 50.3022Z" fill="#0D0C41"/>
<path d="M226.392 56.5998C223.913 56.5998 221.694 55.98 219.735 54.7405C217.816 53.501 216.296 51.7217 215.177 49.4026C214.097 47.0835 213.557 44.3046 213.557 41.0659C213.557 37.7472 214.137 34.9283 215.297 32.6092C216.456 30.2502 218.015 28.4709 219.975 27.2713C221.974 26.0318 224.213 25.4121 226.692 25.4121C229.331 25.4121 231.51 26.1718 233.229 27.6912C234.949 29.2106 236.068 31.1698 236.588 33.5688L235.808 34.5285V12.877H244.025V56H236.648L236.108 46.8836L237.128 47.3634C236.848 49.2427 236.208 50.882 235.209 52.2815C234.209 53.6409 232.95 54.7005 231.43 55.4602C229.911 56.2199 228.231 56.5998 226.392 56.5998ZM228.791 50.3022C230.231 50.3022 231.47 49.9424 232.51 49.2227C233.549 48.463 234.349 47.3634 234.909 45.924C235.509 44.4845 235.808 42.7652 235.808 40.766C235.808 38.8468 235.529 37.2274 234.969 35.9079C234.409 34.5485 233.609 33.5089 232.57 32.7892C231.53 32.0694 230.311 31.7096 228.911 31.7096C226.672 31.7096 224.913 32.5093 223.633 34.1086C222.394 35.668 221.774 37.9671 221.774 41.0059C221.774 44.0447 222.394 46.3638 223.633 47.9632C224.873 49.5225 226.592 50.3022 228.791 50.3022Z" fill="#0D0C41"/>
<path d="M197.828 36.8676C197.828 35.1482 197.328 33.8088 196.328 32.8491C195.369 31.8895 194.089 31.4097 192.49 31.4097C191.01 31.4097 189.711 31.7896 188.591 32.5493C187.472 33.309 186.652 34.5685 186.132 36.3278L179.115 34.1686C179.795 31.5297 181.274 29.4105 183.553 27.8111C185.872 26.2118 188.971 25.4121 192.85 25.4121C195.489 25.4121 197.788 25.8319 199.747 26.6716C201.706 27.4713 203.225 28.6908 204.305 30.3301C205.425 31.9695 205.984 34.0287 205.984 36.5077V48.6829C205.984 50.2023 206.704 50.962 208.144 50.962C208.823 50.962 209.463 50.862 210.063 50.6621L209.583 55.7601C208.543 56.2799 207.244 56.5398 205.685 56.5398C204.285 56.5398 203.026 56.2999 201.906 55.8201C200.786 55.3403 199.907 54.6206 199.267 53.6609C198.627 52.6613 198.307 51.4218 198.307 49.9424V49.7025L199.747 49.4626C199.507 50.982 198.847 52.2815 197.768 53.361C196.688 54.4006 195.369 55.2003 193.809 55.7601C192.29 56.3199 190.71 56.5998 189.071 56.5998C187.032 56.5998 185.273 56.2999 183.793 55.7001C182.314 55.0604 181.174 54.1407 180.374 52.9412C179.575 51.7417 179.175 50.2623 179.175 48.503C179.175 46.2638 179.895 44.4446 181.334 43.0451C182.774 41.6057 184.833 40.6261 187.512 40.1063L198.787 37.8272L198.727 42.9252L191.53 44.3646C190.171 44.6445 189.131 45.0243 188.411 45.5041C187.732 45.944 187.392 46.6837 187.392 47.7233C187.392 48.7229 187.752 49.4826 188.471 50.0024C189.231 50.5222 190.131 50.7821 191.17 50.7821C192.01 50.7821 192.83 50.6821 193.629 50.4822C194.429 50.2823 195.149 49.9624 195.788 49.5226C196.428 49.0827 196.928 48.483 197.288 47.7233C197.648 46.9636 197.828 46.0439 197.828 44.9644V36.8676Z" fill="#0D0C41"/>
<path d="M143.601 56V12.877H151.817V31.1098C152.777 29.1906 154.096 27.7711 155.776 26.8515C157.455 25.8919 159.354 25.4121 161.474 25.4121C163.553 25.4121 165.392 25.8119 166.991 26.6116C168.631 27.4113 169.91 28.6308 170.83 30.2701C171.789 31.8695 172.269 33.8887 172.269 36.3278V56H164.053V38.7268C164.053 36.1278 163.553 34.3485 162.553 33.3889C161.554 32.3893 160.274 31.8895 158.715 31.8895C157.555 31.8895 156.436 32.1694 155.356 32.7292C154.316 33.249 153.457 34.1286 152.777 35.3681C152.137 36.5677 151.817 38.167 151.817 40.1662V56H143.601Z" fill="#0D0C41"/>
<path d="M120.296 15.8158C123.895 15.8158 127.054 16.4356 129.773 17.6751C132.492 18.9146 134.811 20.7539 136.73 23.1929L132.112 28.5308C130.472 26.4517 128.673 24.9323 126.714 23.9726C124.795 22.973 122.556 22.4732 119.997 22.4732C118.317 22.4732 116.918 22.6931 115.798 23.133C114.719 23.5728 113.919 24.1526 113.399 24.8723C112.919 25.592 112.679 26.3917 112.679 27.2713C112.679 28.3509 113.099 29.2705 113.939 30.0302C114.779 30.75 116.218 31.3497 118.257 31.8295L125.634 33.5089C129.553 34.3885 132.352 35.708 134.031 37.4673C135.75 39.1866 136.61 41.4257 136.61 44.1847C136.61 46.7836 135.93 49.0227 134.571 50.902C133.211 52.7413 131.312 54.1607 128.873 55.1603C126.434 56.1199 123.635 56.5998 120.476 56.5998C117.717 56.5998 115.178 56.2799 112.859 55.6401C110.58 54.9604 108.541 54.0408 106.742 52.8812C104.942 51.7217 103.443 50.3822 102.244 48.8628L106.922 43.285C107.841 44.5645 108.981 45.7041 110.34 46.7037C111.7 47.7033 113.239 48.503 114.959 49.1027C116.718 49.6625 118.557 49.9424 120.476 49.9424C122.116 49.9424 123.495 49.7625 124.615 49.4026C125.774 49.0028 126.634 48.463 127.194 47.7832C127.793 47.0635 128.093 46.2039 128.093 45.2043C128.093 44.1647 127.733 43.285 127.014 42.5653C126.334 41.8056 125.055 41.2258 123.175 40.826L115.138 39.0267C112.819 38.4669 110.82 37.7472 109.141 36.8675C107.501 35.9479 106.242 34.7884 105.362 33.3889C104.523 31.9495 104.103 30.2502 104.103 28.2909C104.103 25.9319 104.743 23.8127 106.022 21.9334C107.302 20.0542 109.141 18.5748 111.54 17.4952C113.979 16.3756 116.898 15.8158 120.296 15.8158Z" fill="#0D0C41"/>
<path d="M365.462 83.1351V92.6204C365.462 93.4035 365.629 93.9614 365.961 94.2942C366.294 94.6075 366.872 94.7641 367.694 94.7641H369.662V97.0253H367.254C365.766 97.0253 364.65 96.6827 363.906 95.9975C363.162 95.3123 362.79 94.1866 362.79 92.6204V83.1351H360.705V80.9326H362.79V76.88H365.462V80.9326H369.662V83.1351H365.462Z" fill="#838181"/>
<path d="M351.259 80.6389C353.217 80.6389 354.803 81.236 356.017 82.4302C357.23 83.6049 357.837 85.3081 357.837 87.54V97.0253H355.194V87.9217C355.194 86.3164 354.793 85.0928 353.99 84.251C353.188 83.3895 352.091 82.9588 350.701 82.9588C349.292 82.9588 348.166 83.3993 347.324 84.2803C346.502 85.1613 346.091 86.4436 346.091 88.1273V97.0253H343.418V80.9326H346.091V83.2231C346.619 82.4009 347.334 81.7646 348.235 81.3143C349.155 80.864 350.163 80.6389 351.259 80.6389Z" fill="#838181"/>
<path d="M322.575 88.9202C322.575 87.2757 322.908 85.8367 323.573 84.6034C324.239 83.3504 325.149 82.3813 326.304 81.6961C327.479 81.0109 328.781 80.6683 330.21 80.6683C331.62 80.6683 332.843 80.9717 333.881 81.5786C334.918 82.1855 335.692 82.9491 336.201 83.8692V80.9326H338.902V97.0253H336.201V94.0299C335.672 94.9696 334.879 95.7527 333.822 96.3792C332.785 96.9861 331.571 97.2896 330.181 97.2896C328.752 97.2896 327.459 96.9372 326.304 96.2324C325.149 95.5276 324.239 94.5389 323.573 93.2664C322.908 91.9939 322.575 90.5451 322.575 88.9202ZM336.201 88.9496C336.201 87.7358 335.956 86.6786 335.467 85.778C334.977 84.8774 334.312 84.1922 333.47 83.7224C332.647 83.2329 331.737 82.9882 330.739 82.9882C329.74 82.9882 328.83 83.2231 328.008 83.693C327.185 84.1629 326.529 84.8481 326.04 85.7486C325.551 86.6492 325.306 87.7064 325.306 88.9202C325.306 90.1536 325.551 91.2303 326.04 92.1505C326.529 93.051 327.185 93.746 328.008 94.2355C328.83 94.7053 329.74 94.9403 330.739 94.9403C331.737 94.9403 332.647 94.7053 333.47 94.2355C334.312 93.746 334.977 93.051 335.467 92.1505C335.956 91.2303 336.201 90.1634 336.201 88.9496Z" fill="#838181"/>
<path d="M316.136 83.1351V92.6204C316.136 93.4035 316.303 93.9614 316.635 94.2942C316.968 94.6075 317.546 94.7641 318.368 94.7641H320.335V97.0253H317.927C316.44 97.0253 315.324 96.6827 314.58 95.9975C313.836 95.3123 313.464 94.1866 313.464 92.6204V83.1351H311.379V80.9326H313.464V76.88H316.136V80.9326H320.335V83.1351H316.136Z" fill="#838181"/>
<path d="M303.231 97.2896C301.997 97.2896 300.891 97.084 299.912 96.6729C298.933 96.2422 298.16 95.6549 297.592 94.9109C297.025 94.1474 296.711 93.2762 296.653 92.2973H299.413C299.491 93.1 299.863 93.7558 300.529 94.2649C301.214 94.7739 302.105 95.0284 303.201 95.0284C304.219 95.0284 305.022 94.8032 305.609 94.353C306.197 93.9027 306.49 93.3349 306.49 92.6497C306.49 91.9449 306.177 91.4261 305.551 91.0933C304.924 90.7409 303.955 90.3983 302.643 90.0655C301.449 89.7522 300.47 89.439 299.707 89.1258C298.963 88.7929 298.317 88.3133 297.769 87.6868C297.24 87.0408 296.976 86.1989 296.976 85.1613C296.976 84.3391 297.22 83.5853 297.71 82.9001C298.199 82.2149 298.894 81.6765 299.795 81.285C300.695 80.8738 301.723 80.6683 302.878 80.6683C304.66 80.6683 306.099 81.1186 307.195 82.0191C308.292 82.9197 308.879 84.1531 308.957 85.7193H306.285C306.226 84.8774 305.883 84.202 305.257 83.693C304.65 83.184 303.828 82.9295 302.79 82.9295C301.831 82.9295 301.067 83.135 300.5 83.5462C299.932 83.9573 299.648 84.4957 299.648 85.1613C299.648 85.6899 299.814 86.1304 300.147 86.4828C300.5 86.8156 300.93 87.0897 301.439 87.3051C301.968 87.5008 302.692 87.726 303.613 87.9805C304.768 88.2937 305.707 88.607 306.432 88.9202C307.156 89.2139 307.773 89.6641 308.282 90.271C308.81 90.8779 309.084 91.6708 309.104 92.6497C309.104 93.5307 308.859 94.3236 308.37 95.0284C307.88 95.7332 307.185 96.2911 306.285 96.7023C305.404 97.0938 304.386 97.2896 303.231 97.2896Z" fill="#838181"/>
<path d="M291.687 78.319C291.178 78.319 290.747 78.1428 290.395 77.7904C290.043 77.438 289.866 77.0073 289.866 76.4983C289.866 75.9893 290.043 75.5585 290.395 75.2062C290.747 74.8538 291.178 74.6776 291.687 74.6776C292.176 74.6776 292.588 74.8538 292.92 75.2062C293.273 75.5585 293.449 75.9893 293.449 76.4983C293.449 77.0073 293.273 77.438 292.92 77.7904C292.588 78.1428 292.176 78.319 291.687 78.319ZM292.979 80.9326V97.0253H290.307V80.9326H292.979Z" fill="#838181"/>
<path d="M280.661 97.2896C279.428 97.2896 278.322 97.084 277.343 96.6729C276.364 96.2422 275.591 95.6549 275.023 94.9109C274.455 94.1474 274.142 93.2762 274.083 92.2973H276.844C276.922 93.1 277.294 93.7558 277.959 94.2649C278.645 94.7739 279.535 95.0284 280.632 95.0284C281.65 95.0284 282.453 94.8032 283.04 94.353C283.627 93.9027 283.921 93.3349 283.921 92.6497C283.921 91.9449 283.608 91.4261 282.981 91.0933C282.355 90.7409 281.386 90.3983 280.074 90.0655C278.88 89.7522 277.901 89.439 277.137 89.1258C276.393 88.7929 275.747 88.3133 275.199 87.6868C274.67 87.0408 274.406 86.1989 274.406 85.1613C274.406 84.3391 274.651 83.5853 275.14 82.9001C275.63 82.2149 276.325 81.6765 277.225 81.285C278.126 80.8738 279.154 80.6683 280.309 80.6683C282.09 80.6683 283.529 81.1186 284.626 82.0191C285.722 82.9197 286.309 84.1531 286.388 85.7193H283.715C283.657 84.8774 283.314 84.202 282.687 83.693C282.081 83.184 281.258 82.9295 280.221 82.9295C279.261 82.9295 278.498 83.135 277.93 83.5462C277.362 83.9573 277.078 84.4957 277.078 85.1613C277.078 85.6899 277.245 86.1304 277.578 86.4828C277.93 86.8156 278.361 87.0897 278.87 87.3051C279.398 87.5008 280.123 87.726 281.043 87.9805C282.198 88.2937 283.138 88.607 283.862 88.9202C284.586 89.2139 285.203 89.6641 285.712 90.271C286.241 90.8779 286.515 91.6708 286.534 92.6497C286.534 93.5307 286.29 94.3236 285.8 95.0284C285.311 95.7332 284.616 96.2911 283.715 96.7023C282.834 97.0938 281.816 97.2896 280.661 97.2896Z" fill="#838181"/>
<path d="M265.319 97.2896C264.085 97.2896 262.979 97.084 262 96.6729C261.021 96.2422 260.248 95.6549 259.68 94.9109C259.112 94.1474 258.799 93.2762 258.74 92.2973H261.501C261.579 93.1 261.951 93.7558 262.617 94.2649C263.302 94.7739 264.193 95.0284 265.289 95.0284C266.307 95.0284 267.11 94.8032 267.697 94.353C268.284 93.9027 268.578 93.3349 268.578 92.6497C268.578 91.9449 268.265 91.4261 267.638 91.0933C267.012 90.7409 266.043 90.3983 264.731 90.0655C263.537 89.7522 262.558 89.439 261.795 89.1258C261.051 88.7929 260.405 88.3133 259.856 87.6868C259.328 87.0408 259.064 86.1989 259.064 85.1613C259.064 84.3391 259.308 83.5853 259.798 82.9001C260.287 82.2149 260.982 81.6765 261.883 81.285C262.783 80.8738 263.811 80.6683 264.966 80.6683C266.748 80.6683 268.187 81.1186 269.283 82.0191C270.379 82.9197 270.967 84.1531 271.045 85.7193H268.373C268.314 84.8774 267.971 84.202 267.345 83.693C266.738 83.184 265.916 82.9295 264.878 82.9295C263.919 82.9295 263.155 83.135 262.587 83.5462C262.02 83.9573 261.736 84.4957 261.736 85.1613C261.736 85.6899 261.902 86.1304 262.235 86.4828C262.587 86.8156 263.018 87.0897 263.527 87.3051C264.056 87.5008 264.78 87.726 265.7 87.9805C266.855 88.2937 267.795 88.607 268.519 88.9202C269.244 89.2139 269.86 89.6641 270.37 90.271C270.898 90.8779 271.172 91.6708 271.192 92.6497C271.192 93.5307 270.947 94.3236 270.458 95.0284C269.968 95.7332 269.273 96.2911 268.373 96.7023C267.492 97.0938 266.474 97.2896 265.319 97.2896Z" fill="#838181"/>
<path d="M238.778 88.9202C238.778 87.2757 239.111 85.8367 239.776 84.6034C240.442 83.3504 241.352 82.3813 242.507 81.6961C243.682 81.0109 244.984 80.6683 246.413 80.6683C247.823 80.6683 249.046 80.9717 250.084 81.5786C251.121 82.1855 251.895 82.9491 252.404 83.8692V80.9326H255.105V97.0253H252.404V94.0299C251.875 94.9696 251.082 95.7527 250.025 96.3792C248.988 96.9861 247.774 97.2896 246.384 97.2896C244.955 97.2896 243.662 96.9372 242.507 96.2324C241.352 95.5276 240.442 94.5389 239.776 93.2664C239.111 91.9939 238.778 90.5451 238.778 88.9202ZM252.404 88.9496C252.404 87.7358 252.159 86.6786 251.67 85.778C251.18 84.8774 250.515 84.1922 249.673 83.7224C248.85 83.2329 247.94 82.9882 246.942 82.9882C245.943 82.9882 245.033 83.2231 244.211 83.693C243.388 84.1629 242.732 84.8481 242.243 85.7486C241.754 86.6492 241.509 87.7064 241.509 88.9202C241.509 90.1536 241.754 91.2303 242.243 92.1505C242.732 93.051 243.388 93.746 244.211 94.2355C245.033 94.7053 245.943 94.9403 246.942 94.9403C247.94 94.9403 248.85 94.7053 249.673 94.2355C250.515 93.746 251.18 93.051 251.67 92.1505C252.159 91.2303 252.404 90.1634 252.404 88.9496Z" fill="#838181"/>
<path d="M224.51 83.1351V92.6204C224.51 93.4035 224.676 93.9614 225.009 94.2942C225.342 94.6075 225.92 94.7641 226.742 94.7641H228.709V97.0253H226.301C224.813 97.0253 223.698 96.6827 222.954 95.9975C222.21 95.3123 221.838 94.1866 221.838 92.6204V83.1351H219.753V80.9326H221.838V76.88H224.51V80.9326H228.709V83.1351H224.51Z" fill="#838181"/>
<path d="M211.605 97.2896C210.371 97.2896 209.265 97.084 208.286 96.6729C207.307 96.2422 206.534 95.6549 205.966 94.9109C205.399 94.1474 205.085 93.2762 205.027 92.2973H207.787C207.865 93.1 208.237 93.7558 208.903 94.2649C209.588 94.7739 210.479 95.0284 211.575 95.0284C212.593 95.0284 213.396 94.8032 213.983 94.353C214.571 93.9027 214.864 93.3349 214.864 92.6497C214.864 91.9449 214.551 91.4261 213.925 91.0933C213.298 90.7409 212.329 90.3983 211.017 90.0655C209.823 89.7522 208.844 89.439 208.081 89.1258C207.337 88.7929 206.691 88.3133 206.143 87.6868C205.614 87.0408 205.35 86.1989 205.35 85.1613C205.35 84.3391 205.594 83.5853 206.084 82.9001C206.573 82.2149 207.268 81.6765 208.169 81.285C209.069 80.8738 210.097 80.6683 211.252 80.6683C213.034 80.6683 214.473 81.1186 215.569 82.0191C216.665 82.9197 217.253 84.1531 217.331 85.7193H214.659C214.6 84.8774 214.257 84.202 213.631 83.693C213.024 83.184 212.202 82.9295 211.164 82.9295C210.205 82.9295 209.441 83.135 208.874 83.5462C208.306 83.9573 208.022 84.4957 208.022 85.1613C208.022 85.6899 208.188 86.1304 208.521 86.4828C208.874 86.8156 209.304 87.0897 209.813 87.3051C210.342 87.5008 211.066 87.726 211.986 87.9805C213.141 88.2937 214.081 88.607 214.806 88.9202C215.53 89.2139 216.147 89.6641 216.656 90.271C217.184 90.8779 217.458 91.6708 217.478 92.6497C217.478 93.5307 217.233 94.3236 216.744 95.0284C216.254 95.7332 215.559 96.2911 214.659 96.7023C213.778 97.0938 212.76 97.2896 211.605 97.2896Z" fill="#838181"/>
<path d="M202.38 88.3622C202.38 88.8713 202.351 89.4096 202.292 89.9774H189.43C189.528 91.5632 190.066 92.8063 191.045 93.7069C192.043 94.5879 193.247 95.0284 194.657 95.0284C195.812 95.0284 196.771 94.7641 197.535 94.2355C198.318 93.6873 198.866 92.9629 199.179 92.0624H202.057C201.626 93.609 200.765 94.8718 199.473 95.8506C198.181 96.8099 196.575 97.2896 194.657 97.2896C193.13 97.2896 191.759 96.947 190.546 96.2618C189.351 95.5765 188.412 94.6075 187.726 93.3545C187.041 92.082 186.699 90.6136 186.699 88.9496C186.699 87.2855 187.031 85.827 187.697 84.574C188.363 83.321 189.293 82.3617 190.487 81.6961C191.701 81.0109 193.091 80.6683 194.657 80.6683C196.184 80.6683 197.535 81.0011 198.709 81.6667C199.884 82.3324 200.785 83.2525 201.411 84.4272C202.057 85.5822 202.38 86.8939 202.38 88.3622ZM199.62 87.8043C199.62 86.7862 199.395 85.9151 198.944 85.1907C198.494 84.4467 197.877 83.8888 197.094 83.5168C196.331 83.1253 195.479 82.9295 194.539 82.9295C193.189 82.9295 192.033 83.3602 191.074 84.2216C190.134 85.083 189.596 86.2772 189.459 87.8043H199.62Z" fill="#838181"/>
<path d="M170.524 83.9279C171.072 82.9686 171.875 82.1855 172.932 81.5786C173.989 80.9717 175.193 80.6683 176.544 80.6683C177.993 80.6683 179.295 81.0109 180.45 81.6961C181.605 82.3813 182.515 83.3504 183.181 84.6034C183.847 85.8367 184.18 87.2757 184.18 88.9202C184.18 90.5451 183.847 91.9939 183.181 93.2664C182.515 94.5389 181.595 95.5276 180.421 96.2324C179.266 96.9372 177.973 97.2896 176.544 97.2896C175.154 97.2896 173.931 96.9861 172.874 96.3792C171.836 95.7723 171.053 94.999 170.524 94.0593V97.0253H167.852V75.2943H170.524V83.9279ZM181.449 88.9202C181.449 87.7064 181.204 86.6492 180.714 85.7486C180.225 84.8481 179.559 84.1629 178.717 83.693C177.895 83.2231 176.985 82.9882 175.986 82.9882C175.008 82.9882 174.097 83.2329 173.255 83.7224C172.433 84.1922 171.767 84.8872 171.258 85.8074C170.769 86.7079 170.524 87.7553 170.524 88.9496C170.524 90.1634 170.769 91.2303 171.258 92.1505C171.767 93.051 172.433 93.746 173.255 94.2355C174.097 94.7053 175.008 94.9403 175.986 94.9403C176.985 94.9403 177.895 94.7053 178.717 94.2355C179.559 93.746 180.225 93.051 180.714 92.1505C181.204 91.2303 181.449 90.1536 181.449 88.9202Z" fill="#838181"/>
<path d="M156.495 88.3622C156.495 88.8713 156.466 89.4096 156.407 89.9774H143.545C143.643 91.5632 144.181 92.8063 145.16 93.7069C146.158 94.5879 147.363 95.0284 148.772 95.0284C149.927 95.0284 150.886 94.7641 151.65 94.2355C152.433 93.6873 152.981 92.9629 153.294 92.0624H156.172C155.742 93.609 154.88 94.8718 153.588 95.8506C152.296 96.8099 150.691 97.2896 148.772 97.2896C147.245 97.2896 145.875 96.947 144.661 96.2618C143.467 95.5765 142.527 94.6075 141.842 93.3545C141.156 92.082 140.814 90.6136 140.814 88.9496C140.814 87.2855 141.147 85.827 141.812 84.574C142.478 83.321 143.408 82.3617 144.602 81.6961C145.816 81.0109 147.206 80.6683 148.772 80.6683C150.299 80.6683 151.65 81.0011 152.825 81.6667C153.999 82.3324 154.9 83.2525 155.526 84.4272C156.172 85.5822 156.495 86.8939 156.495 88.3622ZM153.735 87.8043C153.735 86.7862 153.51 85.9151 153.06 85.1907C152.609 84.4467 151.993 83.8888 151.209 83.5168C150.446 83.1253 149.594 82.9295 148.655 82.9295C147.304 82.9295 146.149 83.3602 145.189 84.2216C144.25 85.083 143.711 86.2772 143.574 87.8043H153.735Z" fill="#838181"/>
<path d="M131.016 80.6389C132.23 80.6389 133.326 80.9032 134.305 81.4318C135.284 81.9408 136.047 82.7141 136.596 83.7517C137.163 84.7893 137.447 86.0521 137.447 87.54V97.0253H134.804V87.9217C134.804 86.3164 134.403 85.0928 133.6 84.251C132.797 83.3896 131.701 82.9588 130.311 82.9588C128.902 82.9588 127.776 83.3993 126.934 84.2803C126.112 85.1613 125.701 86.4436 125.701 88.1273V97.0253H123.028V75.2943H125.701V83.2231C126.229 82.4009 126.954 81.7646 127.874 81.3143C128.813 80.8641 129.861 80.6389 131.016 80.6389Z" fill="#838181"/>
<path d="M119.739 76.557V78.7301H114.159V97.0253H111.487V78.7301H105.878V76.557H119.739Z" fill="#838181"/>
<path d="M80.9967 0H67.004V22.3822L80.9967 12.5644V0Z" fill="#625FFB"/>
<path d="M58.6074 11.3107H44.6147V38.0912L58.6074 28.2729V11.3107Z" fill="#625FFB"/>
<path d="M85.6698 11.6251L17.1399 59.7108L8.63232 43.7048L0 47.721L13.5458 64.7952L15.3605 67.0816L17.8515 65.5303L92.5559 19.007L85.6698 11.6251Z" fill="#0D0C41"/>
<path d="M36.2198 24.5064H22.2264V53.8002L36.2198 43.9819V24.5064Z" fill="#4846D4"/>
<path d="M67.004 37.3275V69.2759H80.9967V28.5932L67.004 37.3275Z" fill="#625FFB"/>
<path d="M44.6147 69.276H58.6074V42.5684L44.6147 51.3033V69.276Z" fill="#4846D4"/>
<path d="M67.004 47.2036V69.2759H80.9967V58.9856L67.004 47.2036Z" fill="#4846D4"/>
<path d="M22.2264 69.2759H36.2198V56.544L22.2264 65.2783V69.2759Z" fill="#4846D4"/>
</svg>
