<svg version="1.2" xmlns="http://www.w3.org/2000/svg" viewBox="0 0 54 54" width="54px" height="54px" transform="rotate(0) scale(1, 1)">
	<style>.s0 { fill: #ffffff; }</style>
	<path class="s0" d="m23.52 17q-0.46-0.01-0.83 0.25-0.38 0.25-0.54 0.68-0.15 0.42-0.04 0.86 0.12 0.44 0.47 0.73l8.7 7.46-8.7 7.45q-0.24 0.18-0.39 0.43-0.15 0.26-0.18 0.56-0.03 0.29 0.05 0.57 0.09 0.29 0.28 0.51 0.2 0.23 0.46 0.36 0.27 0.13 0.57 0.14 0.29 0.01 0.57-0.1 0.28-0.11 0.49-0.32l9.96-8.52q0.24-0.21 0.37-0.49 0.13-0.28 0.13-0.59 0-0.32-0.13-0.6-0.13-0.28-0.37-0.49l-9.96-8.53q-0.39-0.34-0.91-0.36z"/>
</svg>