<svg width="68" height="68" viewBox="0 0 68 68" fill="none" xmlns="http://www.w3.org/2000/svg">
<rect width="68" height="68" rx="16" fill="#4846D4"/>
<g filter="url(#filter0_dd_2833_223)">
<rect x="15" y="15" width="38" height="38" rx="19" fill="#FCFCFC"/>
<path d="M42.0156 33.1094H34.8906V25.9844C34.8906 25.4922 34.4916 25.0938 34 25.0938C33.5084 25.0938 33.1094 25.4922 33.1094 25.9844V33.1094H25.9844C25.4927 33.1094 25.0938 33.5078 25.0938 34C25.0938 34.4922 25.4927 34.8906 25.9844 34.8906H33.1094V42.0156C33.1094 42.5078 33.5084 42.9062 34 42.9062C34.4916 42.9062 34.8906 42.5078 34.8906 42.0156V34.8906H42.0156C42.5072 34.8906 42.9062 34.4922 42.9062 34C42.9062 33.5078 42.5072 33.1094 42.0156 33.1094Z" fill="#4846D4"/>
</g>
<defs>
<filter id="filter0_dd_2833_223" x="8.7" y="12.7" width="50.6" height="50.6" filterUnits="userSpaceOnUse" color-interpolation-filters="sRGB">
<feFlood flood-opacity="0" result="BackgroundImageFix"/>
<feColorMatrix in="SourceAlpha" type="matrix" values="0 0 0 0 0 0 0 0 0 0 0 0 0 0 0 0 0 0 127 0" result="hardAlpha"/>
<feOffset dy="1"/>
<feGaussianBlur stdDeviation="1.5"/>
<feColorMatrix type="matrix" values="0 0 0 0 0 0 0 0 0 0 0 0 0 0 0 0 0 0 0.3 0"/>
<feBlend mode="normal" in2="BackgroundImageFix" result="effect1_dropShadow_2833_223"/>
<feColorMatrix in="SourceAlpha" type="matrix" values="0 0 0 0 0 0 0 0 0 0 0 0 0 0 0 0 0 0 127 0" result="hardAlpha"/>
<feMorphology radius="3" operator="dilate" in="SourceAlpha" result="effect2_dropShadow_2833_223"/>
<feOffset dy="4"/>
<feGaussianBlur stdDeviation="1.65"/>
<feColorMatrix type="matrix" values="0 0 0 0 0 0 0 0 0 0 0 0 0 0 0 0 0 0 0.15 0"/>
<feBlend mode="normal" in2="effect1_dropShadow_2833_223" result="effect2_dropShadow_2833_223"/>
<feBlend mode="normal" in="SourceGraphic" in2="effect2_dropShadow_2833_223" result="shape"/>
</filter>
</defs>
</svg>
