<svg width="54px" height="54px" viewBox="0 0 54 54" fill="none" xmlns="http://www.w3.org/2000/svg" transform="rotate(0) scale(1, 1)">
<circle cx="27.0059" cy="27" r="27" transform="rotate(-180 27.0059 27)" fill="#4846d4"/>
<path d="M30.3762 36.9997C30.6718 37.0062 30.9621 36.9205 31.2067 36.7544C31.4513 36.5883 31.638 36.35 31.741 36.0728C31.844 35.7957 31.8581 35.4934 31.7813 35.2078C31.7044 34.9223 31.5406 34.6679 31.3125 34.4799L22.6082 27.023L31.3125 19.5688C31.4703 19.4528 31.6024 19.3055 31.7007 19.1361C31.7989 18.9667 31.8611 18.7788 31.8834 18.5842C31.9056 18.3896 31.8875 18.1926 31.83 18.0053C31.7726 17.8181 31.6771 17.6447 31.5496 17.4961C31.4221 17.3474 31.2652 17.2269 31.0889 17.1417C30.9125 17.0565 30.7205 17.0086 30.5248 17.0011C30.3291 16.9935 30.134 17.0263 29.9516 17.0977C29.7692 17.1691 29.6035 17.2773 29.4649 17.4157L19.4993 25.9423C19.3428 26.0758 19.2171 26.2416 19.1309 26.4284C19.0448 26.6152 19.0001 26.8186 19.0001 27.0243C19.0001 27.23 19.0448 27.4334 19.1309 27.6202C19.2171 27.807 19.3428 27.973 19.4993 28.1065L29.4649 36.6413C29.7167 36.8649 30.0396 36.9917 30.3762 36.9997Z" fill="#ffffff"/>
</svg>