<svg width="48" height="48" viewBox="0 0 48 48" fill="none" xmlns="http://www.w3.org/2000/svg">
<path d="M48 7.57895V12.6316H40.4211V20.2105H35.3684V12.6316H27.7895V7.57895H35.3684V0H40.4211V7.57895H48ZM40.4211 42.9474H5.05263V7.57895H20.2105V2.52632H5.05263C2.27368 2.52632 0 4.8 0 7.57895V42.9474C0 45.7263 2.27368 48 5.05263 48H40.4211C43.2 48 45.4737 45.7263 45.4737 42.9474V27.7895H40.4211V42.9474ZM30.3158 27.7895V37.8947H35.3684V27.7895H30.3158ZM20.2105 37.8947H25.2632V17.6842H20.2105V37.8947ZM15.1579 37.8947V22.7368H10.1053V37.8947H15.1579Z" fill="#838181"/>
</svg>
