<svg width="62" height="62" viewBox="0 0 62 62" fill="none" xmlns="http://www.w3.org/2000/svg">
<path d="M15.254 11.4927C8.32201 11.4927 1.90674 12.1858 1.90674 17.2129V30.5602C1.90674 33.7149 4.47228 36.2805 7.627 36.2805H12.5579L6.70604 42.1333C5.56008 43.2783 4.93085 44.8008 4.93276 46.4187C4.93466 48.0318 5.56675 49.5467 6.70604 50.6793L7.58887 51.5631C8.73101 52.7072 10.2507 53.3374 11.8676 53.3374C13.4845 53.3374 15.0042 52.7072 16.1445 51.5641L25.3436 42.3678C27.4439 40.2637 28.6013 37.4712 28.6013 34.5053V17.2139C28.6013 12.1867 22.186 11.4927 15.254 11.4927Z" fill="#E1E2EE"/>
<path d="M45.7621 11.4927C38.8301 11.4927 32.4148 12.1858 32.4148 17.2129V30.5602C32.4148 33.7149 34.9803 36.2805 38.1351 36.2805H43.0659L37.2141 42.1333C36.0681 43.2783 35.4389 44.8008 35.4408 46.4187C35.4427 48.0318 36.0748 49.5467 37.2141 50.6793L38.0969 51.5631C39.2391 52.7072 40.7588 53.3374 42.3757 53.3374C43.9926 53.3374 45.5123 52.7072 46.6525 51.5641L55.8517 42.3678C57.952 40.2637 59.1094 37.4712 59.1094 34.5053V17.2139C59.1094 12.1867 52.6941 11.4927 45.7621 11.4927Z" fill="#E1E2EE"/>
</svg>
