<svg width="17" height="16" viewBox="0 0 17 16" fill="none" xmlns="http://www.w3.org/2000/svg">
<path d="M7.42344 0.481673C7.69066 -0.16079 8.60078 -0.160788 8.86799 0.481675L10.5486 4.52234C10.6613 4.79319 10.916 4.97825 11.2084 5.00169L15.5706 5.35141C16.2642 5.40701 16.5454 6.27259 16.017 6.72526L12.6934 9.57224C12.4706 9.76308 12.3734 10.0625 12.4414 10.3478L13.4568 14.6046C13.6183 15.2815 12.882 15.8164 12.2882 15.4537L8.55347 13.1726C8.30314 13.0197 7.9883 13.0197 7.73796 13.1726L4.00328 15.4537C3.40946 15.8164 2.67316 15.2815 2.83461 14.6046L3.85002 10.3478C3.91808 10.0625 3.82079 9.76308 3.59801 9.57224L0.27444 6.72525C-0.254004 6.27258 0.0272398 5.40701 0.720832 5.35141L5.08307 5.00169C5.37547 4.97825 5.63018 4.79319 5.74284 4.52234L7.42344 0.481673Z" fill="#D4D4D4"/>
<path d="M7.42344 0.481673C7.69066 -0.16079 8.60078 -0.160788 8.86799 0.481675L10.5486 4.52234C10.6613 4.79319 10.916 4.97825 11.2084 5.00169L15.5706 5.35141C16.2642 5.40701 16.5454 6.27259 16.017 6.72526L12.6934 9.57224C12.4706 9.76308 12.3734 10.0625 12.4414 10.3478L13.4568 14.6046C13.6183 15.2815 12.882 15.8164 12.2882 15.4537L8.55347 13.1726C8.30314 13.0197 7.9883 13.0197 7.73796 13.1726L4.00328 15.4537C3.40946 15.8164 2.67316 15.2815 2.83461 14.6046L3.85002 10.3478C3.91808 10.0625 3.82079 9.76308 3.59801 9.57224L0.27444 6.72525C-0.254004 6.27258 0.0272398 5.40701 0.720832 5.35141L5.08307 5.00169C5.37547 4.97825 5.63018 4.79319 5.74284 4.52234L7.42344 0.481673Z" fill="url(#paint0_linear_90_1042)"/>
<defs>
<linearGradient id="paint0_linear_90_1042" x1="-1.63251" y1="8.52334" x2="17.9239" y2="8.52334" gradientUnits="userSpaceOnUse">
<stop stop-color="#F1C644"/>
<stop offset="0.5" stop-color="#F1C644"/>
<stop offset="0.5" stop-color="#F1C644" stop-opacity="0"/>
<stop offset="1" stop-color="#F1C644" stop-opacity="0"/>
</linearGradient>
</defs>
</svg>
